<?xml version="1.0" standalone="no"?>
<!DOCTYPE svg PUBLIC "-//W3C//DTD SVG 20010904//EN"
 "http://www.w3.org/TR/2001/REC-SVG-20010904/DTD/svg10.dtd">
<svg version="1.0" xmlns="http://www.w3.org/2000/svg"
 width="1024.000000pt" height="1024.000000pt" viewBox="0 0 1024.000000 1024.000000"
 preserveAspectRatio="xMidYMid meet">

<g transform="translate(0.000000,1024.000000) scale(0.100000,-0.100000)"
fill="#000000" stroke="none">
<path d="M5020 8644 c-189 -22 -329 -116 -400 -266 -40 -85 -53 -157 -47 -263
6 -110 30 -177 97 -273 78 -112 184 -184 292 -198 l46 -6 4 -567 c2 -311 2
-568 0 -570 -4 -8 -90 80 -199 204 -58 66 -128 141 -154 167 -47 45 -49 49
-49 102 0 53 2 57 53 108 179 180 26 444 -218 377 -83 -23 -145 -115 -145
-214 0 -83 86 -205 144 -205 24 0 24 0 31 -162 4 -90 5 -199 3 -243 -2 -44 0
-168 4 -275 9 -184 10 -196 31 -212 12 -10 34 -18 48 -18 l27 0 6 108 c3 59 9
191 12 295 4 103 10 187 14 187 3 0 22 -19 41 -42 33 -42 154 -173 285 -309
l64 -67 0 -1058 c0 -582 -4 -1054 -8 -1049 -5 6 -24 47 -42 93 -51 130 -200
352 -307 460 l-43 43 0 282 c0 155 -3 366 -7 468 l-6 187 -41 -23 c-23 -12
-46 -20 -52 -18 -15 5 -24 -167 -24 -479 0 -202 -3 -258 -13 -258 -7 0 -48 35
-91 79 l-78 79 7 303 c4 167 11 312 17 322 5 11 20 17 41 17 114 0 182 172
118 297 -40 78 -96 113 -182 113 -90 0 -171 -55 -207 -140 -29 -69 8 -201 68
-243 20 -14 20 -24 18 -277 l-3 -262 -70 69 c-39 37 -102 104 -140 147 l-70
79 -3 266 c-2 146 -1 293 3 326 l6 60 57 17 c109 32 193 112 262 248 75 147
64 323 -28 466 -121 187 -379 246 -599 139 -105 -52 -188 -153 -219 -267 -22
-80 -19 -220 6 -300 21 -70 85 -165 143 -214 45 -38 123 -73 180 -80 27 -4 50
-12 53 -18 9 -28 8 -486 -1 -486 -12 0 -147 137 -271 275 -49 55 -195 210
-325 345 -130 135 -250 265 -267 289 l-32 43 58 37 c61 40 165 171 203 256 52
117 48 287 -10 411 -34 73 -119 164 -191 207 -127 74 -322 77 -466 6 -186 -92
-287 -275 -271 -492 19 -236 227 -440 460 -451 64 -3 72 -6 91 -32 11 -16 61
-72 111 -124 49 -53 176 -187 280 -300 105 -112 224 -240 265 -285 41 -44 91
-97 109 -118 l35 -37 -217 0 -217 0 0 53 c0 192 -136 377 -318 433 -164 50
-342 10 -464 -104 -183 -171 -185 -477 -4 -666 122 -126 313 -170 485 -111
117 40 166 84 258 234 l21 34 273 -2 c151 -1 283 -4 295 -7 21 -5 324 -316
324 -333 0 -5 -96 -7 -232 -5 -214 4 -235 6 -258 25 -54 43 -110 62 -163 55
-135 -18 -216 -101 -217 -222 -1 -187 218 -289 359 -167 48 40 69 78 79 136
l7 41 230 3 c127 1 253 5 281 8 l51 5 114 -122 c63 -68 174 -185 247 -262 294
-307 433 -554 487 -866 42 -244 46 -349 51 -1370 3 -542 7 -995 9 -1007 12
-55 70 -70 104 -27 21 27 21 30 21 1046 0 1041 2 1098 41 1332 35 209 134 460
231 587 63 84 243 279 456 494 l187 191 276 -4 277 -4 6 -40 c10 -60 42 -115
84 -142 159 -104 354 -7 354 174 0 66 -19 113 -65 160 -43 44 -84 60 -154 60
-63 0 -126 -24 -157 -59 -18 -20 -27 -21 -247 -21 -125 0 -230 4 -233 8 -3 5
18 34 47 65 29 30 95 103 147 161 l95 105 210 1 c116 0 246 3 290 6 l80 6 30
-58 c110 -218 389 -305 632 -198 168 74 291 321 255 514 -29 155 -107 262
-236 325 -136 67 -287 67 -432 1 -73 -33 -190 -151 -226 -226 -28 -59 -48
-141 -48 -194 l0 -34 -153 -7 c-137 -7 -226 -2 -250 12 -5 3 27 42 70 87 43
45 163 174 268 287 104 112 253 268 329 347 135 137 142 142 181 142 60 0 181
37 252 76 96 53 193 176 232 292 15 43 21 87 21 144 0 144 -38 243 -130 342
-107 113 -211 156 -378 156 -102 0 -204 -27 -288 -76 -84 -50 -166 -161 -200
-273 -21 -69 -18 -216 6 -292 35 -115 130 -236 227 -291 29 -17 55 -34 58 -39
6 -9 -28 -47 -405 -444 -142 -148 -306 -325 -366 -393 -74 -84 -110 -118 -116
-110 -4 7 -8 119 -8 249 l0 236 45 6 c58 8 167 62 216 107 86 78 149 228 149
354 0 220 -135 396 -347 451 -190 50 -404 -40 -497 -208 -45 -83 -60 -153 -54
-268 6 -113 30 -183 94 -269 54 -73 114 -118 197 -146 l62 -21 3 -326 2 -326
-83 -88 c-46 -48 -104 -110 -130 -138 -39 -41 -49 -47 -57 -35 -6 9 -10 108
-10 238 l0 224 30 28 c73 68 95 192 47 272 -65 110 -167 153 -264 113 -48 -20
-69 -40 -105 -94 -71 -112 -9 -279 115 -313 l47 -12 0 -308 0 -308 -51 -57
c-52 -58 -99 -102 -110 -103 -3 0 -9 147 -12 328 -3 180 -8 334 -11 342 -5 12
-17 15 -54 10 -45 -5 -47 -6 -54 -45 -4 -22 -7 -207 -7 -411 l-1 -371 -26 -24
c-53 -49 -214 -248 -262 -325 -28 -43 -67 -122 -87 -174 -21 -52 -38 -96 -39
-97 -1 -2 0 473 2 1055 3 844 7 1061 17 1077 15 23 112 132 224 251 42 44 93
99 113 122 20 23 41 42 47 42 7 0 11 -60 12 -182 0 -101 3 -199 7 -218 6 -31
10 -35 40 -36 17 0 32 5 32 10 0 6 7 3 14 -6 11 -15 14 -7 19 65 4 45 7 197 7
337 0 314 2 326 45 340 42 14 109 86 125 134 48 147 -72 306 -221 293 -154
-13 -246 -141 -204 -283 17 -61 76 -134 106 -134 16 0 19 -8 19 -47 0 -27 3
-58 6 -70 5 -17 0 -25 -20 -34 -14 -7 -105 -101 -202 -211 -97 -109 -179 -196
-181 -194 -2 2 -5 260 -7 574 l-2 569 60 11 c136 26 233 100 315 241 51 87 71
158 71 251 0 277 -190 487 -455 503 -38 3 -86 3 -105 1z m312 -220 c15 -8 30
-19 33 -24 5 -8 9 -394 6 -466 -1 -5 -15 -25 -32 -42 l-31 -32 -224 0 -223 0
-35 31 c-20 17 -40 47 -46 67 -15 57 -13 376 4 415 17 40 43 64 76 69 14 2
120 2 235 -1 152 -2 217 -7 237 -17z m-2442 -1064 l0 -60 -48 0 c-26 0 -53 -5
-60 -12 -7 -7 -12 -33 -12 -59 l0 -48 53 -3 52 -3 3 -57 3 -58 -59 0 -59 0 5
-69 c2 -38 1 -102 -2 -142 l-7 -74 -60 3 -60 4 2 136 2 137 -49 5 -49 5 0 63
0 64 52 -7 53 -6 0 61 c0 124 56 175 198 179 l42 1 0 -60z m4434 47 c9 -7 20
-31 23 -53 7 -51 -10 -66 -69 -62 -40 3 -44 5 -56 43 -7 22 -10 50 -7 62 4 19
12 23 48 23 24 0 51 -6 61 -13z m196 -197 l0 -30 42 30 c59 43 106 41 157 -6
46 -40 48 -50 54 -236 l4 -118 -58 0 -59 0 0 108 c0 151 -24 186 -99 147 l-31
-16 0 -117 0 -117 -60 -2 -60 -1 0 187 c0 103 3 191 7 194 3 4 28 7 55 7 47 0
48 -1 48 -30z m-188 -62 c2 -46 2 -129 0 -185 l-4 -103 -57 0 -56 0 0 185 0
185 56 0 56 0 5 -82z m-866 -267 c-9 -89 0 -147 20 -130 8 6 45 14 83 17 76 5
76 5 83 -68 l3 -35 -91 0 -92 0 -6 -76 -7 -75 -40 -11 c-39 -10 -41 -9 -51 16
-7 14 -14 117 -17 229 l-6 202 64 0 64 0 -7 -69z m-2386 -11 c0 -12 -8 -33
-17 -48 l-17 -27 22 19 c28 24 29 5 3 -33 -11 -15 -27 -58 -36 -97 -9 -38 -27
-85 -40 -106 -55 -84 -147 -142 -243 -154 -56 -7 -160 10 -188 31 -14 10 -8
14 41 23 81 17 121 53 71 66 -13 3 -36 22 -51 41 -22 30 -24 39 -14 51 10 12
9 17 -8 29 -11 8 -23 26 -25 40 -4 20 -1 25 14 25 19 0 19 1 -1 26 -12 15 -21
41 -21 61 l0 35 30 -25 c16 -14 53 -33 82 -42 29 -10 72 -28 95 -41 23 -13 44
-24 47 -24 3 0 6 18 6 41 0 34 6 47 35 76 36 36 36 36 105 30 53 -4 71 -2 81
9 16 20 29 17 29 -6z m2163 -132 c2 -7 2 -57 -1 -110 -5 -109 5 -149 44 -167
35 -15 85 -14 129 5 31 13 39 13 46 2 45 -71 -74 -156 -178 -128 -53 15 -117
82 -132 137 -5 21 -13 84 -17 140 l-7 102 49 15 c62 19 61 18 67 4z m1441
-713 c26 -48 60 -69 103 -62 34 6 35 5 29 -21 -12 -47 -40 -77 -74 -77 -30 0
-30 0 -37 -70 -4 -38 -16 -91 -27 -118 -37 -87 -136 -149 -238 -151 -48 -1
-62 4 -94 28 -51 38 -93 98 -112 161 -21 67 -14 98 30 119 49 23 56 20 56 -22
0 -52 30 -103 76 -129 33 -18 46 -20 79 -13 70 16 75 31 73 202 -3 147 -3 150
21 169 13 11 39 19 60 19 31 0 39 -5 55 -35z m-4970 8 c125 -35 208 -159 191
-286 -32 -241 -290 -341 -455 -177 -57 58 -80 117 -80 207 0 94 38 170 115
229 60 45 133 54 229 27z m5076 -28 c0 -16 -6 -25 -15 -25 -18 0 -20 21 -3 38
17 17 18 16 18 -13z"/>
<path d="M5243 8380 c-15 -6 -23 -18 -23 -33 0 -28 14 -43 51 -52 48 -12 78
44 43 79 -17 18 -38 19 -71 6z"/>
<path d="M4912 8360 c-24 -3 -48 -13 -53 -21 -5 -8 -9 -96 -9 -196 l0 -182 26
-20 c25 -20 40 -21 210 -21 223 0 209 -11 218 167 4 68 8 128 11 135 2 8 -18
24 -48 38 -47 24 -67 46 -81 93 -5 15 -19 17 -118 16 -62 -1 -133 -5 -156 -9z
m243 -98 c54 -39 77 -85 72 -141 -11 -106 -125 -163 -226 -112 -54 28 -75 65
-75 131 0 69 24 113 79 141 50 25 95 20 150 -19z"/>
<path d="M5021 8213 c-25 -20 -42 -79 -31 -108 5 -11 24 -28 44 -39 30 -16 40
-17 65 -6 39 16 59 39 67 78 14 67 -89 120 -145 75z"/>
<path d="M2566 5974 c-48 -17 -68 -34 -106 -92 -24 -37 -30 -56 -30 -101 0
-73 35 -148 86 -187 34 -26 45 -29 119 -29 72 0 86 3 122 27 49 32 85 101 91
174 8 91 -46 169 -143 210 -43 17 -88 17 -139 -2z m142 -139 c24 -28 30 -91
12 -126 -12 -22 -61 -49 -89 -49 -27 0 -87 54 -95 86 -9 34 10 90 37 110 33
23 106 12 135 -21z"/>
<path d="M2600 5818 c-26 -42 -25 -50 4 -78 29 -26 56 -21 56 11 0 31 -22 99
-32 99 -4 0 -17 -15 -28 -32z"/>
<path d="M3693 8315 c-171 -48 -294 -173 -337 -341 -55 -213 52 -458 241 -556
94 -49 157 -62 270 -55 80 5 105 11 166 40 96 46 153 99 204 189 53 93 73 169
73 275 0 188 -98 343 -269 425 -60 29 -76 32 -181 35 -79 2 -131 -2 -167 -12z
m327 -223 l0 -59 -55 5 c-50 4 -55 3 -55 -15 0 -11 -3 -41 -6 -67 l-7 -46 62
0 61 0 0 -61 0 -60 -57 2 -57 3 3 -130 c1 -71 5 -133 8 -137 3 -4 -24 -7 -59
-5 l-63 3 0 130 0 130 -52 3 -53 3 0 49 c0 26 -3 56 -6 65 -6 15 0 17 50 14
l56 -4 0 73 c0 71 0 72 41 111 43 43 56 48 137 50 l52 1 0 -58z"/>
<path d="M6188 8314 c-230 -55 -379 -288 -339 -531 33 -205 161 -352 355 -408
96 -28 219 -17 326 29 102 44 111 51 183 145 152 196 139 465 -31 637 -68 68
-133 107 -217 129 -72 18 -200 18 -277 -1z m0 -225 c3 -55 2 -56 -25 -62 -15
-3 -44 -2 -63 2 -33 6 -35 9 -38 50 -5 68 0 72 65 69 l58 -3 3 -56z m-45 -139
l37 0 0 -185 0 -185 -60 0 -61 0 1 191 c2 191 2 191 23 185 12 -3 39 -6 60 -6z
m232 -22 l-7 -32 28 19 c16 10 38 24 49 32 27 18 65 16 102 -7 55 -33 63 -62
63 -220 l0 -140 -49 0 c-35 0 -51 4 -55 16 -3 9 -6 60 -6 113 0 116 -13 137
-82 132 -29 -2 -40 -39 -41 -149 l-2 -107 -51 -3 -51 -3 -6 106 c-3 58 -3 144
0 191 l6 84 54 0 55 0 -7 -32z"/>
</g>
</svg>
